<svg width="488" height="342" viewBox="0 0 488 342" fill="none" xmlns="http://www.w3.org/2000/svg">
<path d="M445.688 335.596C410.514 350.733 375.857 329.992 360.989 296.307C353.503 279.351 334.21 224.263 316.054 175.172C310.823 161.028 289.917 164.791 289.917 179.928C289.917 226.972 289.793 275.773 289.482 279.971C288.883 288.47 287.787 331.626 238.758 339.732C189.791 347.838 177.922 313.532 172.628 301.931C166.569 288.635 144.588 229.95 123.537 175.255C118.037 160.842 95.2697 165.019 96.7586 180.362C107.181 332.039 53.7886 351.002 23.8048 339.049C-11.204 325.091 0.396669 284.251 16.9395 254.454C20.9304 247.257 48.3709 202.654 59.3925 127.777C61.8739 111.151 68.9046 39.4382 136.958 30.2363C219.134 19.1112 242.149 103.831 246.471 116.61C252.261 134.022 273.932 131.065 273.932 112.744C273.932 112.744 273.291 80.816 274.718 67.1888C277.468 40.8237 296.617 6.51801 334.686 0.893452C372.755 -4.71043 398.148 16.6298 412.189 48.5575C416.097 57.4285 433.136 96.3455 448.045 138.447C464.65 185.367 478.939 235.822 481.359 245.996C485.949 265.33 493.786 314.98 445.75 335.72L445.688 335.575V335.596Z" fill="#AAFFD8"/>
</svg>
