<svg width="370" height="192" viewBox="0 0 370 192" fill="none" xmlns="http://www.w3.org/2000/svg">
<path d="M66.2051 148.837V174.391H56.6461V152.415C56.6461 144.068 53.7444 141.001 47.7703 141.001C41.6251 141.001 38.382 145.345 38.382 153.181V174.391H28.823V152.415C28.823 144.068 26.0065 141.001 20.1175 141.001C13.6314 141.001 10.559 145.345 10.559 153.181V174.391H1V132.824H10.559V138.957H10.7297C14.1434 134.357 18.7524 132.228 23.8731 132.228C30.1885 132.228 34.5413 135.039 36.7603 140.064C40.8568 134.868 45.8923 132.228 51.5254 132.228C61.084 132.228 66.2051 138.531 66.2051 148.837ZM73.9482 174.391H83.5068V132.824H73.9482V174.391ZM78.7275 114C75.1431 114 72.3265 116.896 72.3265 120.303C72.3265 123.795 75.1431 126.692 78.7275 126.692C82.3124 126.692 85.2141 123.795 85.2141 120.303C85.2141 116.896 82.3124 114 78.7275 114ZM115.613 132.228C110.151 132.228 105.2 134.272 101.701 138.957H101.531V132.824H91.9717V174.391H101.531V153.181C101.531 145.345 104.859 141.001 111.857 141.001C118.259 141.001 121.331 144.068 121.331 152.415V174.391H130.89V148.837C130.89 138.531 125.598 132.228 115.613 132.228ZM169.237 114.852H178.711V174.39H169.579V168.428H169.408C166.421 172.857 161.898 175.072 155.923 175.072C144.401 175.072 135.696 166.639 135.696 153.777C135.696 141.257 144.401 132.228 155.838 132.228C161.3 132.228 165.994 134.017 169.067 137.935H169.237V114.852V114.852ZM169.579 153.607C169.579 145.516 165.055 140.831 157.459 140.831C150.802 140.831 145.426 145.771 145.426 153.607C145.426 161.103 150.376 166.384 157.374 166.384C164.629 166.384 169.579 162.125 169.579 153.607ZM229.659 153.777C229.659 166.639 220.954 175.072 209.431 175.072C203.457 175.072 198.934 172.857 195.947 168.428H195.776V174.39H186.644V114.852H196.118V137.935H196.288C199.36 134.017 204.055 132.228 209.517 132.228C220.954 132.228 229.659 141.257 229.659 153.777ZM219.929 153.607C219.929 145.771 214.552 140.831 207.896 140.831C200.3 140.831 195.776 145.516 195.776 153.607C195.776 162.125 200.726 166.384 207.981 166.384C214.979 166.384 219.929 161.103 219.929 153.607ZM277.085 153.71C277.077 166.307 268.033 175.072 255.237 175.072C242.093 175.072 233.388 165.873 233.388 153.692C233.388 141.469 242.033 132.291 255.101 132.228C267.181 132.17 277.093 141.653 277.085 153.71ZM267.356 153.692C267.356 145.771 262.065 140.405 255.237 140.405C247.982 140.405 243.118 146.197 243.118 153.692C243.118 161.018 248.067 166.81 255.237 166.81C261.979 166.81 267.356 161.444 267.356 153.692ZM314.359 114.852H323.833V174.39H314.7V168.428H314.53C311.543 172.857 307.02 175.072 301.045 175.072C289.523 175.072 280.818 166.639 280.818 153.777C280.818 141.257 289.523 132.228 300.96 132.228C306.422 132.228 311.116 134.017 314.189 137.935H314.359V114.852V114.852ZM314.7 153.607C314.7 145.516 310.177 140.831 302.582 140.831C295.924 140.831 290.548 145.771 290.548 153.607C290.548 161.103 295.498 166.384 302.496 166.384C309.75 166.384 314.7 162.125 314.7 153.607ZM359.441 132.824V152.671C359.441 160.507 356.198 164.851 349.37 164.851C343.14 164.851 340.153 161.784 340.153 153.437V132.824H330.594V157.185C330.594 167.491 335.8 173.794 345.615 173.794C350.992 173.794 356.198 171.58 359.27 167.236H359.441V170.643C359.441 177.968 355.259 182.397 347.066 182.397C341.092 182.397 337.422 180.694 332.899 178.309L330.594 186.656C335.288 189.467 341.348 191 347.578 191C363.111 191 369 181.545 369 168.513V132.824H359.441V132.824Z" fill="white"/>
<path d="M236.328 85.3849C227.457 89.2026 218.716 83.9715 214.966 75.4756C213.078 71.199 208.212 57.3052 203.633 44.9239C202.313 41.3565 197.041 42.3057 197.041 46.1234C197.041 57.9884 197.009 70.2968 196.931 71.3555C196.78 73.499 196.504 84.3835 184.138 86.428C171.788 88.4724 168.794 79.8201 167.459 76.8942C165.931 73.5407 160.387 58.7394 155.078 44.9447C153.69 41.3096 147.948 42.3631 148.324 46.2329C150.952 84.4879 137.486 89.2704 129.924 86.2559C121.094 82.7355 124.02 72.4351 128.192 64.9197C129.199 63.1047 136.12 51.8551 138.899 32.9702C139.525 28.777 141.299 10.69 158.462 8.36915C179.188 5.56327 184.993 26.9307 186.083 30.1539C187.543 34.5452 193.009 33.7994 193.009 29.1786C193.009 29.1786 192.848 21.126 193.207 17.6891C193.901 11.0394 198.73 2.38709 208.332 0.968504C217.934 -0.444868 224.338 4.93742 227.879 12.99C228.865 15.2274 233.163 25.0428 236.923 35.6613C241.111 47.495 244.715 60.2206 245.325 62.7866C246.483 67.663 248.459 80.1851 236.344 85.4162L236.328 85.3797V85.3849Z" fill="white"/>
</svg>
